# xmcd CD database file
#
# Track frame offsets:
#	150
#	41853
#	79215
#	107570
#	146472
#	188335
#	248980
#
# Disc length: 3756 seconds
#
# Revision: 2
# Processed by: cddbd v1.5.1PL2 Copyright (c) Steve Scherf et al.
# Submitted via: CDex 1.51
#
DISCID=560eaa07
DTITLE=Double Standards - Volume One
DYEAR=2005
DGENRE=Jazz
TTITLE0=Invitation
TTITLE1=Long ago and far away
TTITLE2=United
TTITLE3=Out of nowhere
TTITLE4=Footprints
TTITLE5=All of you
TTITLE6=I'll remember April
EXTD=YEAR: 2005
EXTT0=
EXTT1=
EXTT2=
EXTT3=
EXTT4=
EXTT5=
EXTT6=
PLAYORDER=
